<?xml version="1.0" encoding="UTF-8"?>
<svg id="Layer_1" data-name="Layer 1" xmlns="http://www.w3.org/2000/svg" viewBox="0 0 180.77 140.4">
  <defs>
    <style>
      .cls-1 {
        fill: red;
        font-family: CenturyGothicPro, 'Century Gothic Pro';
        font-size: 16px;
      }

      .cls-2 {
        fill: #fff;
        stroke: red;
        stroke-miterlimit: 10;
      }
    </style>
  </defs>
  <path class="cls-2" d="m23.59,53.29c1.92-6.99,1.51-6.31,1.88-9.1.83-6.21-3.59-11.68-5.06-13.48-4.78-5.9-8.44-4.55-12.22-10.11-.73-1.07-5-7.37-2.53-13.06C8.38,1.26,17.18.59,18.3.52c1.66-.1,3.78,0,12.64,3.64,9.54,3.91,24.02,10.53,24.02,10.53,1.58.72,2.81,1.29,4.64,1.69,5.56,1.21,8.39-.88,14.33-1.69,4.28-.58,11.09-1.49,16.43,2.11,3.33,2.25,4.13,4.92,8.85,6.74,1.39.54,3.48,1.32,5.9.84,3.71-.72,5.93-3.96,6.74-5.06,5.66-7.66,19.75-15.75,31.6-15.59,2.7.04,10.57.14,14.75,5.9,2.91,4.01,3.54,10.08,1.26,14.33-.98,1.83-1.56,1.57-4.21,4.64-3.53,4.08-6.95,8.03-6.32,11.8.51,3.02,3.43,4.86,8.43,8.01,5.43,3.42,7.41,2.96,9.69,5.9,2.97,3.84,2.57,8.46,2.53,8.85-.61,5.91-5.72,9.91-7.59,11.38-3.8,2.98-6.58,3.26-7.16,5.9-.45,2.04.74,3.96,1.69,5.48,2.42,3.9,5.89,5.83,6.74,6.32,6.4,3.69,14.86,12.45,16.65,21.91,1.51,8-2.11,14.5-2.74,15.59-.93,1.61-4.57,7.93-11.38,9.79-5.15,1.4-10.66-1.19-21.49-6.42-4.66-2.25-10.67-5.16-18.54-10.11-8.82-5.56-10.38-7.65-15.59-8.85-1.27-.29-6.1-1.3-15.59.84-10.88,2.46-12.74,5.63-23.6,9.69-8.53,3.19-17.92,6.7-28.66,4.21-3.2-.74-14.06-3.26-16.43-11.38-1.13-3.88-.41-9.3,2.53-12.64.42-.48.52-.5,7.59-6.32,2.34-1.93,3.5-2.91,3.37-3.79-.28-1.87-4.75-2.89-8.01-2.95-1.92-.03-2.99.27-7.16,1.26-5.9,1.4-8.86,2.1-9.69,2.11-.87,0-7.97-.07-11.8-5.48-3.15-4.45-2.1-9.71-1.8-10.96,1.78-7.59,9.52-12.15,11.07-13.06,3.66-2.15,6.48-2.61,8.43-5.9.81-1.37,2.22-2.99,3.18-6.49Z"/>
  <text class="cls-1" transform="translate(32.93 74.65)"><tspan x="0" y="0">Add to basket</tspan></text>
</svg>