<?xml version="1.0" encoding="utf-8"?>
<!-- Generator: Adobe Illustrator 26.5.0, SVG Export Plug-In . SVG Version: 6.00 Build 0)  -->
<svg version="1.1" id="Layer_1" xmlns="http://www.w3.org/2000/svg" xmlns:xlink="http://www.w3.org/1999/xlink" x="0px" y="0px"
	 viewBox="0 0 181 180" style="enable-background:new 0 0 181 180;" xml:space="preserve">
<style type="text/css">
	.st0{fill:#FF0000;stroke:#FF0000;stroke-width:2;stroke-miterlimit:10;}
</style>
<path class="st0" d="M23.7,73.09c1.92-6.99,1.51-6.31,1.88-9.1c0.83-6.21-3.59-11.68-5.06-13.48c-4.78-5.9-8.44-4.55-12.22-10.11
	c-0.73-1.07-5-7.37-2.53-13.06c2.72-6.28,11.52-6.95,12.64-7.02c1.66-0.1,3.78,0,12.64,3.64c9.54,3.91,24.02,10.53,24.02,10.53
	c1.58,0.72,2.81,1.29,4.64,1.69c5.56,1.21,8.39-0.88,14.33-1.69c4.28-0.58,11.09-1.49,16.43,2.11c3.33,2.25,4.13,4.92,8.85,6.74
	c1.39,0.54,3.48,1.32,5.9,0.84c3.71-0.72,5.93-3.96,6.74-5.06c5.66-7.66,19.75-15.75,31.6-15.59c2.7,0.04,10.57,0.14,14.75,5.9
	c2.91,4.01,3.54,10.08,1.26,14.33c-0.98,1.83-1.56,1.57-4.21,4.64c-3.53,4.08-6.95,8.03-6.32,11.8c0.51,3.02,3.43,4.86,8.43,8.01
	c5.43,3.42,7.41,2.96,9.69,5.9c2.97,3.84,2.57,8.46,2.53,8.85c-0.61,5.91-5.72,9.91-7.59,11.38c-3.8,2.98-6.58,3.26-7.16,5.9
	c-0.45,2.04,0.74,3.96,1.69,5.48c2.42,3.9,5.89,5.83,6.74,6.32c6.4,3.69,14.86,12.45,16.65,21.91c1.51,8-2.11,14.5-2.74,15.59
	c-0.93,1.61-4.57,7.93-11.38,9.79c-5.15,1.4-10.66-1.19-21.49-6.42c-4.66-2.25-10.67-5.16-18.54-10.11
	c-8.82-5.56-10.38-7.65-15.59-8.85c-1.27-0.29-6.1-1.3-15.59,0.84c-10.88,2.46-12.74,5.63-23.6,9.69
	c-8.53,3.19-17.92,6.7-28.66,4.21c-3.2-0.74-14.06-3.26-16.43-11.38c-1.13-3.88-0.41-9.3,2.53-12.64c0.42-0.48,0.52-0.5,7.59-6.32
	c2.34-1.93,3.5-2.91,3.37-3.79c-0.28-1.87-4.75-2.89-8.01-2.95c-1.92-0.03-2.99,0.27-7.16,1.26c-5.9,1.4-8.86,2.1-9.69,2.11
	c-0.87,0-7.97-0.07-11.8-5.48c-3.15-4.45-2.1-9.71-1.8-10.96c1.78-7.59,9.52-12.15,11.07-13.06c3.66-2.15,6.48-2.61,8.43-5.9
	C21.34,78.21,22.75,76.59,23.7,73.09L23.7,73.09z"/>
</svg>
