<?xml version="1.0" encoding="utf-8"?>
<!-- Generator: Adobe Illustrator 26.5.0, SVG Export Plug-In . SVG Version: 6.00 Build 0)  -->
<svg version="1.1" id="Layer_1" xmlns="http://www.w3.org/2000/svg" xmlns:xlink="http://www.w3.org/1999/xlink" x="0px" y="0px"
	 viewBox="0 0 181 180" style="enable-background:new 0 0 181 180;" xml:space="preserve">
<style type="text/css">
	.st0{fill:#FFFFFF;stroke:#FF0000;stroke-width:15;stroke-miterlimit:10;}
</style>
<path class="st0" d="M29.08,73.34c1.76-6.49,1.38-5.85,1.72-8.44c0.76-5.76-3.29-10.84-4.64-12.51c-4.38-5.47-7.73-4.22-11.2-9.38
	c-0.67-0.99-4.58-6.84-2.32-12.12c2.49-5.83,10.56-6.45,11.58-6.51c1.52-0.09,3.46,0,11.58,3.38c8.74,3.63,22.01,9.77,22.01,9.77
	c1.45,0.67,2.57,1.2,4.25,1.57c5.09,1.12,7.69-0.82,13.13-1.57c3.92-0.54,10.16-1.38,15.05,1.96c3.05,2.09,3.78,4.56,8.11,6.25
	c1.27,0.5,3.19,1.22,5.41,0.78c3.4-0.67,5.43-3.67,6.18-4.69c5.19-7.11,18.1-14.61,28.95-14.46c2.47,0.04,9.69,0.13,13.52,5.47
	c2.67,3.72,3.24,9.35,1.15,13.3c-0.9,1.7-1.43,1.46-3.86,4.3c-3.23,3.79-6.37,7.45-5.79,10.95c0.47,2.8,3.14,4.51,7.72,7.43
	c4.98,3.17,6.79,2.75,8.88,5.47c2.72,3.56,2.35,7.85,2.32,8.21c-0.56,5.48-5.24,9.19-6.95,10.56c-3.48,2.76-6.03,3.02-6.56,5.47
	c-0.41,1.89,0.68,3.67,1.55,5.08c2.22,3.62,5.4,5.41,6.18,5.86c5.86,3.42,13.62,11.55,15.26,20.33c1.38,7.42-1.93,13.45-2.51,14.46
	c-0.85,1.49-4.19,7.36-10.43,9.08c-4.72,1.3-9.77-1.1-19.69-5.96c-4.27-2.09-9.78-4.79-16.99-9.38c-8.08-5.16-9.51-7.1-14.28-8.21
	c-1.16-0.27-5.59-1.21-14.28,0.78c-9.97,2.28-11.67,5.22-21.62,8.99c-7.82,2.96-16.42,6.22-26.26,3.91
	c-2.93-0.69-12.88-3.02-15.05-10.56c-1.04-3.6-0.38-8.63,2.32-11.73c0.38-0.45,0.48-0.46,6.95-5.86c2.14-1.79,3.21-2.7,3.09-3.52
	c-0.26-1.73-4.35-2.68-7.34-2.74c-1.76-0.03-2.74,0.25-6.56,1.17c-5.41,1.3-8.12,1.95-8.88,1.96c-0.8,0-7.3-0.06-10.81-5.08
	c-2.89-4.13-1.92-9.01-1.65-10.17c1.63-7.04,8.72-11.27,10.14-12.12c3.35-1.99,5.94-2.42,7.72-5.47
	C26.91,78.09,28.21,76.59,29.08,73.34L29.08,73.34z"/>
</svg>
