<?xml version="1.0" encoding="utf-8"?>
<!-- Generator: Adobe Illustrator 27.5.0, SVG Export Plug-In . SVG Version: 6.00 Build 0)  -->
<svg version="1.1" id="Layer_1" xmlns="http://www.w3.org/2000/svg" xmlns:xlink="http://www.w3.org/1999/xlink" x="0px" y="0px"
	 viewBox="0 0 181 180" style="enable-background:new 0 0 181 180;" xml:space="preserve">
<style type="text/css">
	.st0{fill:#FF0000;}
</style>
<path class="st0" d="M23.2,72.8c1.9-7.1,1.5-6.4,1.9-9.3c0.8-6.3-3.6-11.9-5.1-13.7c-4.8-6-8.5-4.6-12.3-10.3
	c-0.7-1.1-5-7.5-2.5-13.3C7.9,19.7,16.8,19,17.9,19c1.7-0.1,3.8,0,12.7,3.7c9.6,4,24.2,10.7,24.2,10.7c1.6,0.7,2.8,1.3,4.7,1.7
	c5.6,1.2,8.4-0.9,14.4-1.7c4.3-0.6,11.2-1.5,16.5,2.2c3.4,2.3,4.2,5,8.9,6.9c1.4,0.6,3.5,1.3,5.9,0.9c3.7-0.7,6-4,6.8-5.2
	c5.7-7.8,19.9-16.1,31.8-15.9c2.7,0,10.6,0.1,14.8,6c2.9,4.1,3.6,10.3,1.3,14.6c-1,1.9-1.6,1.6-4.2,4.7c-3.6,4.2-7,8.2-6.4,12
	c0.5,3.1,3.5,5,8.5,8.2c5.5,3.5,7.5,3,9.8,6c3,3.9,2.6,8.6,2.5,9c-0.6,6-5.8,10.1-7.6,11.6c-3.8,3-6.6,3.3-7.2,6
	c-0.5,2.1,0.7,4,1.7,5.6c2.4,4,5.9,5.9,6.8,6.4c6.4,3.8,15,12.7,16.8,22.3c1.5,8.2-2.1,14.8-2.8,15.9c-0.9,1.6-4.6,8.1-11.5,10
	c-5.2,1.4-10.7-1.2-21.6-6.6c-4.7-2.3-10.7-5.3-18.7-10.3c-8.9-5.7-10.4-7.8-15.7-9c-1.3-0.3-6.1-1.3-15.7,0.9
	c-10.9,2.5-12.8,5.7-23.8,9.9c-8.6,3.2-18,6.8-28.9,4.3c-3.2-0.8-14.2-3.3-16.5-11.6c-1.1-4-0.4-9.5,2.5-12.9
	c0.4-0.5,0.5-0.5,7.6-6.4c2.4-2,3.5-3,3.4-3.9c-0.3-1.9-4.8-3-8.1-3c-1.9,0-3,0.3-7.2,1.3c-5.9,1.4-8.9,2.1-9.8,2.2
	c-0.9,0-8-0.1-11.9-5.6c-3.2-4.5-2.1-9.9-1.8-11.2C2.2,91,10,86.3,11.6,85.4c3.7-2.2,6.5-2.7,8.5-6C20.8,78,22.3,76.3,23.2,72.8
	L23.2,72.8z"/>
</svg>
