<?xml version="1.0" encoding="utf-8"?>
<!-- Generator: Adobe Illustrator 26.5.0, SVG Export Plug-In . SVG Version: 6.00 Build 0)  -->
<svg version="1.1" id="Layer_1" xmlns="http://www.w3.org/2000/svg" xmlns:xlink="http://www.w3.org/1999/xlink" x="0px" y="0px"
	 viewBox="0 0 181 180" style="enable-background:new 0 0 181 180;" xml:space="preserve">
<style type="text/css">
	.st0{fill:#FFFFFF;stroke:#FF0000;stroke-width:10;stroke-miterlimit:10;}
</style>
<path class="st0" d="M27.4,73.05c1.81-6.69,1.43-6.04,1.78-8.71c0.78-5.94-3.39-11.18-4.78-12.9c-4.52-5.65-7.98-4.36-11.55-9.68
	c-0.69-1.02-4.73-7.05-2.39-12.5c2.57-6.01,10.89-6.65,11.95-6.72c1.57-0.1,3.57,0,11.95,3.48c9.02,3.74,22.71,10.08,22.71,10.08
	c1.49,0.69,2.66,1.23,4.39,1.62c5.26,1.16,7.93-0.84,13.55-1.62c4.05-0.56,10.48-1.43,15.53,2.02c3.15,2.15,3.9,4.71,8.37,6.45
	c1.31,0.52,3.29,1.26,5.58,0.8c3.51-0.69,5.61-3.79,6.37-4.84c5.35-7.33,18.67-15.08,29.87-14.92c2.55,0.04,9.99,0.13,13.94,5.65
	c2.75,3.84,3.35,9.65,1.19,13.72c-0.93,1.75-1.47,1.5-3.98,4.44c-3.34,3.91-6.57,7.69-5.97,11.29c0.48,2.89,3.24,4.65,7.97,7.67
	c5.13,3.27,7,2.83,9.16,5.65c2.81,3.68,2.43,8.1,2.39,8.47c-0.58,5.66-5.41,9.49-7.17,10.89c-3.59,2.85-6.22,3.12-6.77,5.65
	c-0.43,1.95,0.7,3.79,1.6,5.25c2.29,3.73,5.57,5.58,6.37,6.05c6.05,3.53,14.05,11.92,15.74,20.97c1.43,7.66-1.99,13.88-2.59,14.92
	c-0.88,1.54-4.32,7.59-10.76,9.37c-4.87,1.34-10.08-1.14-20.31-6.15c-4.41-2.15-10.09-4.94-17.53-9.68
	c-8.34-5.32-9.81-7.32-14.74-8.47c-1.2-0.28-5.77-1.24-14.74,0.8c-10.28,2.35-12.04,5.39-22.31,9.27
	c-8.06,3.05-16.94,6.41-27.09,4.03c-3.02-0.71-13.29-3.12-15.53-10.89c-1.07-3.71-0.39-8.9,2.39-12.1c0.4-0.46,0.49-0.48,7.17-6.05
	c2.21-1.85,3.31-2.79,3.19-3.63c-0.26-1.79-4.49-2.77-7.57-2.82c-1.81-0.03-2.83,0.26-6.77,1.21c-5.58,1.34-8.38,2.01-9.16,2.02
	c-0.82,0-7.53-0.07-11.15-5.25c-2.98-4.26-1.99-9.29-1.7-10.49c1.68-7.26,9-11.63,10.46-12.5c3.46-2.06,6.13-2.5,7.97-5.65
	C25.17,77.95,26.5,76.4,27.4,73.05L27.4,73.05z"/>
</svg>
