<?xml version="1.0" encoding="utf-8"?>
<!-- Generator: Adobe Illustrator 27.5.0, SVG Export Plug-In . SVG Version: 6.00 Build 0)  -->
<svg version="1.1" id="Layer_1" xmlns="http://www.w3.org/2000/svg" xmlns:xlink="http://www.w3.org/1999/xlink" x="0px" y="0px"
	 viewBox="0 0 1920 1080" style="enable-background:new 0 0 1920 1080;" xml:space="preserve">
<path d="M508.4,393c6.9-29,10.3-43.6,7.8-59.1c-5.8-35.9-33.4-60.1-60.7-84c-31.2-27.4-38.7-23-54.5-43.6c-6.1-8-37.6-49-21.8-90.3
	c13.1-34.1,49.9-45.8,57.6-48.2c8.9-2.8,31.9-8.8,84,6.2c31,8.9,46.5,17.8,94.9,42c71.4,35.7,107.5,53.5,127.6,54.5
	c17.2,0.8,13.7-2.3,94.9-7.8c36.7-2.5,44.4-2.3,52.9-1.6c24.6,2.1,59.1,5.1,87.1,28c20.6,16.8,18.3,28.5,37.3,35.8
	c23.3,8.9,47.3-0.8,52.9-3.1c21.1-8.6,33.4-23.4,37.3-28c43-50.2,129.5-91.9,194.5-105.8c29.9-6.4,56.7-11.7,85.6,1.6
	c25.1,11.5,51.2,36.9,56,70c5.1,35.7-16.6,65.9-29.6,84c-16.6,23.2-26.2,23.9-38.9,48.2c-6.8,13-20.3,38.9-10.9,60.7
	c5.1,11.9,14.4,16.3,38.9,29.6c50.4,27.3,75.8,41.2,84,52.9c16.8,23.9,17.5,58.3,7.8,82.5c-9.3,23.4-34.2,52-65.4,66.9
	c-10.5,5-25.1,10.1-29.6,23.3c-3.8,11.3,1.6,23.1,3.1,26.5c7,15.2,20.2,23,23.3,24.9c29.1,17.7,60.6,59.3,93.4,102.7
	c31.2,41.3,53.6,70.9,56.6,115.2c0.9,13.7,2.9,51.4-22.3,87.1c-5,7.1-28.3,38.5-70,48.8c-32.2,7.9-57.5-1.1-99.6-16.1
	c-34.4-12.3-58.2-26-104.3-52.9c-42.3-24.7-44.1-28.5-84-51.4c-47-26.9-70.6-40.4-96.5-46.7c-42.7-10.4-78.1-4.6-104.3,0
	c-53.1,9.3-62.4,23.4-140.1,54.5c-109.8,43.9-165.3,45.2-183.6,45.1c-34.1-0.1-65.2-5.3-94.9-21.8c-17.2-9.6-39.7-22.5-51.4-49.8
	c-9.7-22.8-10.5-51.9,1.6-74.7c12.6-24,40.7-43.6,45.1-46.7c9.3-6.5,14-11.1,23.3-20.2c12-11.8,14-16,14-20.2
	c0-10.9-13-18.7-15.6-20.2c-12.8-7.7-26.5-7-45.1-4.7c-33.8,4.2-50,9.7-85.6,15.6c-27.4,4.5-35.1,4.2-42,3.1
	c-6.7-1-27.9-4.6-46.7-21.8c-1.9-1.8-32.2-30.3-28.1-70c1.8-17.1,9.5-28.5,25-51.4c11.8-17.4,24.1-35.6,46.7-49.8
	c16.7-10.5,23.4-9.1,38.9-21.8c13.3-10.9,20.6-22.1,26.5-31.1C498.4,434.5,504.2,411.1,508.4,393z"/>
</svg>
