<?xml version="1.0" encoding="utf-8"?>
<!-- Generator: Adobe Illustrator 27.4.1, SVG Export Plug-In . SVG Version: 6.00 Build 0)  -->
<svg version="1.1" id="Layer_1" xmlns="http://www.w3.org/2000/svg" xmlns:xlink="http://www.w3.org/1999/xlink" x="0px" y="0px"
	 viewBox="0 0 48 48" style="enable-background:new 0 0 48 48;" xml:space="preserve">
<style type="text/css">
	.st0{fill:#FF0000;}
</style>
<path class="st0" d="M14.9,41.7c-0.7,0-1.3-0.2-1.8-0.7c-0.5-0.5-0.7-1.1-0.7-1.9c0-0.7,0.2-1.4,0.7-1.9c0.5-0.5,1.1-0.7,1.8-0.7
	c0.7,0,1.3,0.2,1.8,0.7c0.5,0.5,0.8,1.1,0.8,1.9c0,0.7-0.2,1.4-0.7,1.9C16.3,41.5,15.6,41.7,14.9,41.7z M33.3,41.7
	c-0.7,0-1.3-0.2-1.8-0.7c-0.5-0.5-0.7-1.1-0.7-1.9c0-0.7,0.2-1.4,0.7-1.9c0.5-0.5,1.1-0.7,1.8-0.7s1.3,0.2,1.8,0.7
	c0.5,0.5,0.8,1.1,0.8,1.9c0,0.7-0.2,1.4-0.7,1.9C34.7,41.5,34,41.7,33.3,41.7z M11.4,10.4l5.7,12h13.2c0.3,0,0.6-0.1,0.8-0.2
	s0.4-0.4,0.6-0.6l5.4-9.8c0.2-0.4,0.2-0.7,0-1c-0.2-0.3-0.5-0.4-0.9-0.4H11.4z M10.9,9.3h25c0.9,0,1.6,0.4,2,1.1
	c0.5,0.7,0.5,1.5,0.1,2.2l-5.2,9.5c-0.3,0.4-0.6,0.8-1,1c-0.4,0.2-0.9,0.4-1.3,0.4H16.2l-2.7,4.9c-0.2,0.4-0.2,0.8,0,1.3
	s0.6,0.7,1.1,0.7h21.3v1.1H14.8c-1,0-1.8-0.4-2.2-1.1c-0.5-0.8-0.5-1.6,0-2.5l3.2-5.8L8.2,6.4H4.8V5.3h4.2L10.9,9.3z M17.1,22.4
	h14.1H17.1z"/>
</svg>
